<?xml version="1.0" encoding="utf-8"?>
<!-- Generator: Adobe Illustrator 27.0.1, SVG Export Plug-In . SVG Version: 6.00 Build 0)  -->
<svg version="1.1" id="Layer_1_copy" xmlns="http://www.w3.org/2000/svg" xmlns:xlink="http://www.w3.org/1999/xlink" x="0px"
	 y="0px" viewBox="0 0 632 355.5" style="enable-background:new 0 0 632 355.5;" xml:space="preserve">
<style type="text/css">
	.st0{fill:#EEEEEE;stroke:#393939;stroke-width:4.5896;stroke-miterlimit:10;}
	.st1{opacity:0.2;}
	.st2{fill:#D32027;}
	.st3{opacity:0.2;enable-background:new    ;}
	.st4{fill:#393939;}
	.st5{fill:#EEEEEE;}
	.st6{fill:#BFB073;}
	.st7{fill:#CE5B64;}
	.st8{fill:none;stroke:#E5D32C;stroke-width:1.7717;stroke-miterlimit:10;}
	.st9{fill:#D3C735;}
</style>
<g>
	<path class="st0" d="M84.4,172.6h484.1c25.2,0,45.7,20.5,45.7,45.7l0,0c0,25.2-20.5,45.7-45.7,45.7H84.4c-5.2,0-9.5-4.3-9.5-9.5
		V182C74.9,176.8,79.1,172.6,84.4,172.6L84.4,172.6z"/>
	<g class="st1">
		<path d="M367.4,244.5c-29.6,0-55.4-1.2-77.7-3.3l-10.8-9.5c1.6-0.9,3.1-2,4.4-3.3c1.3-1.2,2.4-2.6,3.2-4.1c0.9-1.5,1.6-3,2-4.7
			c0.5-1.7,0.7-3.5,0.7-5.3c0-3-0.6-5.9-1.9-8.4c-1.3-2.6-3-4.8-5.3-6.7c-2.3-1.9-5-3.4-8.2-4.4c-3.2-1.1-6.7-1.6-10.6-1.6
			c-3.9,0-7.4,0.5-10.6,1.6c-3.2,1.1-5.9,2.5-8.2,4.4s-4,4.1-5.3,6.7s-1.9,5.4-1.9,8.4c0,3,0.6,5.9,1.9,8.4c1.3,2.6,3,4.8,5.3,6.7
			s5,3.4,8.2,4.4c3.2,1.1,6.7,1.6,10.6,1.6c1.4,0,2.7-0.1,4-0.2c1.3-0.1,2.5-0.3,3.7-0.6l5.7,5.1c-106-12.4-128.6-46.5-132.1-67.3
			h-58c-6.5,0-11.7,4.2-11.7,9.5v72.4c0,5.2,5.3,9.5,11.7,9.5h471c25.2,0,46.5-13.3,53.8-31.7C583.3,237.7,518.2,244.5,367.4,244.5
			L367.4,244.5z M270.1,227.9c-2,0.7-4.2,1-6.8,1s-4.8-0.3-6.8-1c-2-0.7-3.7-1.6-5.1-2.9s-2.5-2.8-3.2-4.6s-1.1-3.8-1.1-6.1
			s0.4-4.3,1.1-6.1c0.8-1.8,1.8-3.3,3.2-4.6c1.4-1.3,3.1-2.2,5.1-2.9c2-0.7,4.3-1,6.8-1s4.8,0.3,6.8,1c2,0.7,3.7,1.6,5.1,2.9
			c1.4,1.3,2.5,2.8,3.2,4.6s1.1,3.8,1.1,6.1s-0.4,4.3-1.1,6.1s-1.8,3.3-3.2,4.6C273.8,226.3,272.1,227.3,270.1,227.9z"/>
		<path d="M290.1,217.4c0,2.3-0.2,4.4-0.7,6.5c-0.5,2.1-1.1,4-2,5.8c-0.9,1.8-1.9,3.4-3.2,4.9c-1.3,1.5-2.7,2.8-4.3,4l12.8,14h-7.8
			c-1.1,0-2.1-0.2-3-0.5c-0.9-0.3-1.7-0.9-2.5-1.7l-7.4-8.2c-1.2,0.3-2.4,0.6-3.7,0.7c-1.2,0.2-2.6,0.2-3.9,0.2
			c-3.8,0-7.3-0.6-10.5-1.9c-3.2-1.3-5.9-3.1-8.1-5.4s-4-5-5.2-8.2c-1.2-3.2-1.9-6.6-1.9-10.3c0-3.7,0.6-7.1,1.9-10.3
			c1.2-3.2,3-5.9,5.2-8.2s5-4.1,8.1-5.4c3.2-1.3,6.7-1.9,10.5-1.9s7.3,0.7,10.5,2c3.1,1.3,5.8,3.1,8.1,5.4s4,5,5.2,8.2
			C289.4,210.3,290.1,213.7,290.1,217.4L290.1,217.4z M280.4,217.4c0-2.8-0.4-5.3-1.1-7.5s-1.8-4.1-3.2-5.6c-1.4-1.5-3-2.7-5-3.5
			c-2-0.8-4.2-1.2-6.7-1.2s-4.7,0.4-6.7,1.2c-2,0.8-3.7,2-5.1,3.5c-1.4,1.5-2.5,3.4-3.2,5.6c-0.7,2.2-1.1,4.7-1.1,7.5
			s0.4,5.3,1.1,7.5c0.7,2.2,1.8,4.1,3.2,5.6s3.1,2.7,5.1,3.5c2,0.8,4.2,1.2,6.7,1.2s4.7-0.4,6.7-1.2c2-0.8,3.6-2,5-3.5
			c1.4-1.5,2.4-3.4,3.2-5.6C280,222.7,280.4,220.2,280.4,217.4z"/>
		<path d="M299.7,238.8c1,1.2,2.3,2.2,3.8,2.8c1.5,0.7,3.2,1,5.2,1c1.2,0,2.3-0.1,3.3-0.4c1-0.2,2-0.6,2.9-1c0.9-0.4,1.7-1,2.5-1.6
			c0.8-0.6,1.6-1.3,2.3-2l0.6,2.9c0.4,1.1,1.1,1.6,2.2,1.6h5.3v-35.9h-8.6v26c-1.2,1.2-2.4,2.1-3.7,2.7c-1.3,0.7-2.7,1-4.2,1
			c-2,0-3.6-0.6-4.6-1.8c-1-1.2-1.5-2.9-1.5-5.1v-22.8h-8.6V229c0,2,0.3,3.8,0.8,5.5C297.9,236.1,298.7,237.6,299.7,238.8
			L299.7,238.8z"/>
		<path d="M338.2,199.5c0.5,0.5,1.1,0.9,1.7,1.2s1.4,0.4,2.1,0.4s1.5-0.1,2.2-0.4c0.7-0.3,1.3-0.7,1.8-1.2c0.5-0.5,0.9-1.1,1.2-1.7
			c0.3-0.7,0.5-1.4,0.5-2.1c0-0.7-0.2-1.5-0.5-2.2c-0.3-0.7-0.7-1.3-1.2-1.8c-0.5-0.5-1.1-0.9-1.8-1.2c-0.7-0.3-1.4-0.4-2.2-0.4
			s-1.5,0.1-2.1,0.4c-0.7,0.3-1.2,0.7-1.7,1.2c-0.5,0.5-0.9,1.1-1.2,1.8c-0.3,0.7-0.4,1.4-0.4,2.2s0.1,1.4,0.4,2.1
			C337.3,198.4,337.7,199,338.2,199.5z"/>
		<rect x="337.7" y="206.1" width="8.6" height="35.9"/>
		<path d="M358.4,237.7c1.5,1.6,3.2,2.8,5.1,3.6c2,0.8,4,1.2,6.3,1.2c1.3,0,2.5-0.1,3.8-0.3c1.3-0.2,2.5-0.5,3.7-1
			c1.2-0.5,2.4-1.1,3.5-1.8c1.1-0.8,2.2-1.7,3.1-2.8l-2.5-3.1c-0.4-0.5-0.9-0.8-1.6-0.8c-0.5,0-1,0.2-1.5,0.5
			c-0.4,0.3-0.9,0.7-1.5,1.1c-0.6,0.4-1.3,0.8-2.2,1.1c-0.9,0.3-2,0.5-3.3,0.5s-2.6-0.3-3.7-0.8c-1.1-0.5-2-1.3-2.8-2.3
			s-1.4-2.3-1.8-3.8c-0.4-1.5-0.6-3.2-0.6-5.1s0.2-3.5,0.6-4.9c0.4-1.5,0.9-2.7,1.7-3.7c0.8-1,1.7-1.8,2.9-2.4
			c1.1-0.5,2.5-0.8,4-0.8c1.2,0,2.2,0.1,3,0.4c0.8,0.3,1.5,0.6,2.1,0.9c0.6,0.3,1.1,0.6,1.5,0.9c0.4,0.3,0.9,0.4,1.3,0.4
			c0.5,0,0.8-0.1,1.1-0.3c0.2-0.2,0.5-0.4,0.8-0.8l2.3-3.1c-1.6-1.6-3.4-2.8-5.4-3.7c-2-0.9-4.4-1.3-7.1-1.3c-2.8,0-5.3,0.5-7.5,1.4
			c-2.2,0.9-4,2.2-5.5,3.9c-1.5,1.6-2.6,3.6-3.3,5.8c-0.8,2.3-1.1,4.7-1.1,7.3c0,2.9,0.4,5.6,1.3,7.9
			C355.8,234.2,357,236.1,358.4,237.7L358.4,237.7z"/>
		<path d="M398.2,225.6h2c0.7,0,1.2,0.1,1.6,0.2c0.4,0.2,0.7,0.5,1.1,1.1l9.1,13.6c0.4,0.6,0.8,1,1.3,1.2c0.5,0.2,1,0.4,1.7,0.4h7.8
			l-12-17.4c-0.4-0.5-0.7-1-1.1-1.5c-0.4-0.5-0.8-0.9-1.3-1.2c0.5-0.3,0.9-0.7,1.4-1.1c0.4-0.4,0.8-0.9,1.2-1.3l11.2-13.3h-7.9
			c-0.7,0-1.3,0.1-1.8,0.4c-0.4,0.3-0.9,0.6-1.3,1.1l-8.9,11c-0.4,0.4-0.7,0.7-1.1,0.9c-0.3,0.2-0.8,0.2-1.4,0.2h-1.6V190h-8.6v52
			h8.6L398.2,225.6L398.2,225.6z"/>
		<path d="M469,240.9c2.3-0.7,4.2-1.8,5.8-3.1c1.6-1.3,2.8-2.9,3.6-4.7c0.8-1.8,1.2-3.8,1.2-5.9c0-5.9-3.5-9.7-10.4-11.3
			c1.6-0.5,2.9-1.2,4-2c1.1-0.8,2.1-1.6,2.8-2.6s1.3-2,1.6-3c0.4-1.1,0.5-2.2,0.5-3.4c0-2.1-0.4-3.9-1.1-5.6
			c-0.7-1.7-1.8-3.1-3.3-4.2c-1.5-1.2-3.4-2.1-5.8-2.7s-5.2-0.9-8.5-0.9h-17.5V242h19.1C464.1,242,466.7,241.7,469,240.9L469,240.9z
			 M451.5,198.7h8c3.2,0,5.5,0.6,7,1.7c1.5,1.1,2.2,3,2.2,5.6s-0.8,4.4-2.5,5.6c-1.7,1.2-4.1,1.8-7.3,1.8h-7.5L451.5,198.7
			L451.5,198.7z M451.5,234.7v-14.8h9.5c1.7,0,3.1,0.2,4.2,0.5s2.1,0.8,2.9,1.4s1.3,1.4,1.6,2.2s0.5,1.9,0.5,3s-0.2,2-0.5,3
			s-0.8,1.8-1.5,2.4c-0.7,0.7-1.7,1.3-2.8,1.7c-1.2,0.4-2.6,0.6-4.4,0.6L451.5,234.7L451.5,234.7z"/>
		<path d="M488.2,199.5c0.5,0.5,1.1,0.9,1.7,1.2c0.7,0.3,1.4,0.4,2.1,0.4c0.7,0,1.5-0.1,2.2-0.4c0.7-0.3,1.3-0.7,1.8-1.2
			c0.5-0.5,0.9-1.1,1.2-1.7c0.3-0.7,0.5-1.4,0.5-2.1c0-0.7-0.2-1.5-0.5-2.2c-0.3-0.7-0.7-1.3-1.2-1.8c-0.5-0.5-1.1-0.9-1.8-1.2
			c-0.7-0.3-1.4-0.4-2.2-0.4s-1.5,0.1-2.1,0.4c-0.7,0.3-1.2,0.7-1.7,1.2c-0.5,0.5-0.9,1.1-1.2,1.8c-0.3,0.7-0.4,1.4-0.4,2.2
			s0.1,1.4,0.4,2.1C487.3,198.4,487.7,199,488.2,199.5z"/>
		<rect x="487.7" y="206.1" width="8.6" height="35.9"/>
		<path d="M504.6,212.6h3.6v20.1c0,3.1,0.8,5.5,2.5,7.3c1.7,1.8,4.1,2.6,7.2,2.6c1.8,0,3.4-0.3,5.1-0.8s3.1-1.3,4.3-2.4l-2.6-4.2
			c-0.2-0.3-0.4-0.4-0.5-0.6c-0.2-0.1-0.4-0.2-0.6-0.2c-0.2,0-0.4,0.1-0.6,0.2c-0.2,0.1-0.4,0.3-0.7,0.4c-0.3,0.1-0.6,0.3-0.9,0.4
			c-0.4,0.1-0.8,0.2-1.3,0.2c-0.9,0-1.7-0.3-2.2-0.9c-0.6-0.6-0.8-1.5-0.8-2.6v-19.5h9.5v-6.2h-9.5v-11.3h-4.5
			c-0.5,0-0.9,0.1-1.3,0.4c-0.3,0.3-0.6,0.6-0.6,1.1l-1.8,9.8l-5.8,0.9v3.4c0,0.6,0.2,1.1,0.5,1.4
			C503.7,212.5,504.1,212.6,504.6,212.6L504.6,212.6z"/>
		<path d="M535.9,237.6c1.6,1.6,3.5,2.8,5.6,3.7c2.1,0.8,4.5,1.2,7,1.2c1.3,0,2.6-0.1,3.9-0.3c1.3-0.2,2.7-0.5,4-1
			c1.3-0.5,2.5-1.1,3.7-1.8c1.2-0.8,2.3-1.7,3.2-2.8l-2.5-3.1c-0.2-0.3-0.4-0.5-0.7-0.6c-0.3-0.1-0.6-0.2-0.9-0.2
			c-0.5,0-1.1,0.2-1.7,0.5c-0.6,0.3-1.2,0.7-2,1.1c-0.8,0.4-1.6,0.8-2.7,1.1c-1,0.3-2.2,0.5-3.6,0.5c-2.8,0-5.1-0.9-6.9-2.6
			c-1.7-1.7-2.7-4.4-3-8.1h22.2c0.4,0,0.7-0.1,1-0.2c0.3-0.1,0.5-0.3,0.6-0.5c0.2-0.2,0.3-0.6,0.3-1c0.1-0.4,0.1-1,0.1-1.6
			c0-2.6-0.4-4.9-1.2-6.9c-0.8-2-1.8-3.7-3.2-5.1c-1.4-1.4-3-2.4-4.9-3.2c-1.9-0.7-4-1.1-6.2-1.1c-2.7,0-5.1,0.5-7.2,1.4
			c-2.1,0.9-3.9,2.2-5.4,3.8c-1.5,1.6-2.6,3.5-3.4,5.6c-0.8,2.2-1.2,4.5-1.2,6.9c0,3.1,0.5,5.9,1.4,8.3
			C533.1,234,534.3,236,535.9,237.6L535.9,237.6z M542.3,213.9c1.4-1.4,3.4-2.1,5.9-2.1c1.3,0,2.4,0.2,3.4,0.6c1,0.4,1.8,1,2.4,1.8
			c0.6,0.7,1.1,1.6,1.4,2.6c0.3,1,0.5,2,0.5,3.2h-16.2C540,217.3,540.9,215.3,542.3,213.9L542.3,213.9z"/>
		<path d="M584.8,235.2c-0.5,0.4-1.1,0.7-1.8,1c-0.7,0.2-1.6,0.4-2.6,0.4c-1.3,0-2.4-0.2-3.2-0.5c-0.9-0.3-1.6-0.6-2.2-1
			c-0.6-0.4-1.2-0.7-1.7-1c-0.5-0.3-1-0.5-1.5-0.5s-1,0.1-1.3,0.3c-0.4,0.2-0.7,0.5-0.9,0.9l-2,3.3c0.7,0.6,1.5,1.2,2.4,1.8
			c0.9,0.5,1.9,1,3,1.4c1.1,0.4,2.2,0.7,3.4,0.9c1.2,0.2,2.4,0.3,3.6,0.3c2.3,0,4.4-0.3,6.1-0.9s3.3-1.4,4.5-2.5
			c1.2-1.1,2.1-2.3,2.8-3.8c0.6-1.5,0.9-3,0.9-4.8c0-1.4-0.3-2.7-0.8-3.7c-0.5-1-1.2-1.9-2-2.6s-1.8-1.3-2.8-1.8
			c-1.1-0.5-2.1-0.9-3.2-1.3c-1.1-0.4-2.2-0.7-3.2-1c-1.1-0.3-2-0.7-2.8-1.1c-0.8-0.4-1.5-0.9-2-1.4c-0.5-0.5-0.8-1.2-0.8-1.9
			c0-1.2,0.5-2.1,1.5-2.8c1-0.7,2.3-1.1,4-1.1c1.1,0,2,0.1,2.9,0.4c0.8,0.2,1.5,0.5,2.2,0.8s1.2,0.6,1.7,0.8
			c0.5,0.2,0.9,0.4,1.3,0.4c0.4,0,0.7-0.1,1-0.2c0.3-0.2,0.5-0.4,0.7-0.8l2-3.1c-1.4-1.3-3-2.4-5.1-3.2s-4.3-1.2-6.8-1.2
			c-2.2,0-4.2,0.3-5.9,0.9s-3.1,1.4-4.2,2.4c-1.1,1-2,2.2-2.6,3.5c-0.6,1.3-0.9,2.7-0.9,4.2c0,1.6,0.3,2.9,0.8,4.1
			c0.5,1.1,1.2,2.1,2,2.8s1.8,1.4,2.8,1.9c1.1,0.5,2.1,0.9,3.3,1.3c1.1,0.4,2.2,0.7,3.3,1c1.1,0.3,2,0.7,2.8,1.1
			c0.8,0.4,1.5,0.9,2,1.4c0.5,0.5,0.8,1.2,0.8,2.1c0,0.6-0.1,1.1-0.3,1.6C585.7,234.4,585.3,234.8,584.8,235.2L584.8,235.2z"/>
	</g>
	<g>
		<path class="st2" d="M292.9,214.6c0,2.3-0.2,4.4-0.7,6.5c-0.5,2.1-1.1,4-2,5.8c-0.9,1.8-1.9,3.4-3.2,4.9c-1.3,1.5-2.7,2.8-4.3,4
			l12.8,14h-7.8c-1.1,0-2.1-0.2-3-0.5c-0.9-0.3-1.7-0.9-2.5-1.7l-7.4-8.2c-1.2,0.3-2.4,0.6-3.7,0.7s-2.6,0.2-3.9,0.2
			c-3.8,0-7.3-0.6-10.5-1.9c-3.2-1.3-5.9-3.1-8.1-5.4c-2.3-2.3-4-5-5.2-8.2c-1.2-3.2-1.9-6.6-1.9-10.3c0-3.7,0.6-7.1,1.9-10.3
			c1.2-3.2,3-5.9,5.2-8.2c2.3-2.3,5-4.1,8.1-5.4c3.2-1.3,6.7-1.9,10.5-1.9c3.8,0,7.3,0.7,10.5,2s5.8,3.1,8.1,5.4
			c2.2,2.3,4,5,5.2,8.2C292.3,207.5,292.9,210.9,292.9,214.6L292.9,214.6z M283.2,214.6c0-2.8-0.4-5.3-1.1-7.5
			c-0.7-2.2-1.8-4.1-3.2-5.6c-1.4-1.5-3-2.7-5-3.5c-2-0.8-4.2-1.2-6.7-1.2c-2.5,0-4.7,0.4-6.7,1.2c-2,0.8-3.7,2-5.1,3.5
			c-1.4,1.5-2.5,3.4-3.2,5.6c-0.7,2.2-1.1,4.7-1.1,7.5s0.4,5.3,1.1,7.5c0.7,2.2,1.8,4.1,3.2,5.6c1.4,1.5,3.1,2.7,5.1,3.5
			c2,0.8,4.2,1.2,6.7,1.2c2.5,0,4.7-0.4,6.7-1.2c2-0.8,3.6-2,5-3.5c1.4-1.5,2.4-3.4,3.2-5.6C282.9,219.9,283.2,217.4,283.2,214.6z"
			/>
		<path class="st2" d="M307.7,204v22.8c0,2.2,0.5,3.9,1.5,5.1c1,1.2,2.5,1.8,4.6,1.8c1.5,0,2.9-0.3,4.2-1s2.5-1.6,3.7-2.7v-26h8.6
			v35.9h-5.3c-1.1,0-1.9-0.5-2.2-1.6l-0.6-2.9c-0.7,0.7-1.5,1.4-2.3,2c-0.8,0.6-1.6,1.1-2.5,1.6c-0.9,0.4-1.9,0.8-2.9,1
			c-1,0.2-2.2,0.4-3.3,0.4c-2,0-3.7-0.3-5.2-1s-2.8-1.6-3.8-2.8c-1-1.2-1.8-2.7-2.3-4.3c-0.5-1.7-0.8-3.5-0.8-5.5V204L307.7,204
			L307.7,204z"/>
		<path class="st2" d="M350.1,193.5c0,0.7-0.2,1.4-0.5,2.1c-0.3,0.7-0.7,1.2-1.2,1.7c-0.5,0.5-1.1,0.9-1.8,1.2
			c-0.7,0.3-1.4,0.4-2.2,0.4s-1.5-0.1-2.1-0.4c-0.7-0.3-1.2-0.7-1.7-1.2c-0.5-0.5-0.9-1.1-1.2-1.7c-0.3-0.7-0.4-1.4-0.4-2.1
			c0-0.7,0.1-1.5,0.4-2.2c0.3-0.7,0.7-1.3,1.2-1.8c0.5-0.5,1.1-0.9,1.7-1.2c0.7-0.3,1.4-0.4,2.1-0.4c0.7,0,1.5,0.1,2.2,0.4
			c0.7,0.3,1.3,0.7,1.8,1.2c0.5,0.5,0.9,1.1,1.2,1.8C349.9,192.1,350.1,192.8,350.1,193.5z M348.8,204v35.9h-8.6V204H348.8z"/>
		<path class="st2" d="M383.8,211.6c-0.3,0.3-0.5,0.6-0.8,0.8c-0.2,0.2-0.6,0.3-1.1,0.3s-0.9-0.1-1.3-0.4c-0.4-0.3-0.9-0.6-1.5-0.9
			c-0.6-0.3-1.3-0.6-2.1-0.9s-1.8-0.4-3-0.4c-1.5,0-2.8,0.3-4,0.8c-1.1,0.5-2.1,1.3-2.9,2.4c-0.8,1-1.3,2.3-1.7,3.7
			c-0.4,1.5-0.6,3.1-0.6,4.9c0,1.8,0.2,3.6,0.6,5.1c0.4,1.5,1,2.7,1.8,3.8c0.8,1,1.7,1.8,2.8,2.3c1.1,0.5,2.3,0.8,3.7,0.8
			c1.4,0,2.5-0.2,3.3-0.5c0.9-0.3,1.6-0.7,2.2-1.1c0.6-0.4,1.1-0.8,1.5-1.1c0.4-0.3,0.9-0.5,1.5-0.5c0.7,0,1.2,0.3,1.6,0.8l2.5,3.1
			c-1,1.1-2,2.1-3.1,2.8c-1.1,0.8-2.3,1.4-3.5,1.8c-1.2,0.5-2.4,0.8-3.7,1c-1.3,0.2-2.6,0.3-3.8,0.3c-2.2,0-4.3-0.4-6.3-1.2
			s-3.7-2-5.1-3.6c-1.5-1.6-2.6-3.5-3.5-5.8c-0.9-2.3-1.3-4.9-1.3-7.9c0-2.6,0.4-5.1,1.1-7.3c0.8-2.3,1.9-4.2,3.3-5.8
			c1.5-1.6,3.3-2.9,5.5-3.9c2.2-0.9,4.7-1.4,7.5-1.4c2.8,0,5,0.4,7.1,1.3c2,0.9,3.8,2.1,5.4,3.7L383.8,211.6L383.8,211.6z"/>
		<path class="st2" d="M400.7,187.9v29.8h1.6c0.6,0,1-0.1,1.4-0.2c0.3-0.2,0.7-0.5,1.1-0.9l8.9-11c0.4-0.5,0.8-0.8,1.3-1.1
			c0.4-0.3,1-0.4,1.8-0.4h7.9l-11.2,13.3c-0.4,0.5-0.8,0.9-1.2,1.3c-0.4,0.4-0.9,0.8-1.4,1.1c0.5,0.4,0.9,0.8,1.3,1.2
			c0.4,0.5,0.7,1,1.1,1.5l12,17.4h-7.8c-0.7,0-1.2-0.1-1.7-0.4c-0.5-0.2-0.9-0.6-1.3-1.2l-9.1-13.6c-0.4-0.5-0.7-0.9-1.1-1.1
			c-0.4-0.2-0.9-0.2-1.6-0.2h-2v16.4h-8.6v-52L400.7,187.9L400.7,187.9z"/>
		<path class="st2" d="M444.5,239.9v-50.6H462c3.3,0,6.1,0.3,8.5,0.9c2.3,0.6,4.3,1.5,5.8,2.7c1.5,1.2,2.6,2.6,3.3,4.2
			c0.7,1.7,1.1,3.5,1.1,5.6c0,1.2-0.2,2.3-0.5,3.4c-0.4,1.1-0.9,2.1-1.6,3c-0.7,0.9-1.7,1.8-2.8,2.6c-1.1,0.8-2.5,1.4-4,2
			c7,1.6,10.4,5.3,10.4,11.3c0,2.1-0.4,4.1-1.2,5.9c-0.8,1.8-2,3.4-3.6,4.7c-1.6,1.3-3.5,2.3-5.8,3.1c-2.3,0.7-4.9,1.1-7.8,1.1
			L444.5,239.9L444.5,239.9z M454,211.2h7.5c3.2,0,5.6-0.6,7.3-1.8c1.7-1.2,2.5-3,2.5-5.6s-0.7-4.5-2.2-5.6c-1.5-1.1-3.8-1.7-7-1.7
			h-8L454,211.2L454,211.2z M454,217.7v14.8h9.6c1.8,0,3.2-0.2,4.4-0.6c1.2-0.4,2.1-1,2.8-1.7c0.7-0.7,1.2-1.5,1.5-2.4
			c0.3-0.9,0.5-1.9,0.5-3c0-1.1-0.2-2.1-0.5-3c-0.4-0.9-0.9-1.6-1.6-2.2c-0.7-0.6-1.7-1.1-2.9-1.4c-1.2-0.3-2.6-0.5-4.2-0.5
			L454,217.7L454,217.7z"/>
		<path class="st2" d="M500.2,193.5c0,0.7-0.2,1.4-0.5,2.1c-0.3,0.7-0.7,1.2-1.2,1.7c-0.5,0.5-1.1,0.9-1.8,1.2
			c-0.7,0.3-1.4,0.4-2.2,0.4s-1.5-0.1-2.1-0.4c-0.7-0.3-1.2-0.7-1.7-1.2c-0.5-0.5-0.9-1.1-1.2-1.7c-0.3-0.7-0.4-1.4-0.4-2.1
			c0-0.7,0.1-1.5,0.4-2.2c0.3-0.7,0.7-1.3,1.2-1.8c0.5-0.5,1.1-0.9,1.7-1.2c0.7-0.3,1.4-0.4,2.1-0.4c0.7,0,1.5,0.1,2.2,0.4
			c0.7,0.3,1.3,0.7,1.8,1.2c0.5,0.5,0.9,1.1,1.2,1.8C500,192.1,500.2,192.8,500.2,193.5z M498.9,204v35.9h-8.6V204H498.9z"/>
		<path class="st2" d="M520.4,240.5c-3.1,0-5.5-0.9-7.2-2.6c-1.7-1.8-2.5-4.2-2.5-7.3v-20.1h-3.6c-0.5,0-0.9-0.2-1.2-0.5
			s-0.5-0.8-0.5-1.4v-3.4l5.8-0.9l1.8-9.8c0.1-0.5,0.3-0.8,0.6-1.1c0.3-0.3,0.8-0.4,1.3-0.4h4.5v11.3h9.5v6.2h-9.5V230
			c0,1.1,0.3,2,0.8,2.6c0.6,0.6,1.3,0.9,2.2,0.9c0.5,0,1-0.1,1.3-0.2c0.4-0.1,0.7-0.3,0.9-0.4c0.3-0.1,0.5-0.3,0.7-0.4
			c0.2-0.1,0.4-0.2,0.6-0.2c0.3,0,0.5,0.1,0.6,0.2c0.2,0.1,0.3,0.3,0.5,0.6l2.6,4.2c-1.3,1.1-2.7,1.8-4.3,2.4
			C523.9,240.2,522.2,240.5,520.4,240.5L520.4,240.5z"/>
		<path class="st2" d="M550.5,203.4c2.3,0,4.3,0.4,6.2,1.1c1.9,0.7,3.5,1.8,4.9,3.2c1.4,1.4,2.4,3.1,3.2,5.1c0.8,2,1.2,4.3,1.2,6.9
			c0,0.7,0,1.2-0.1,1.6c-0.1,0.4-0.2,0.8-0.3,1s-0.4,0.4-0.6,0.5c-0.3,0.1-0.6,0.2-1,0.2h-22.2c0.3,3.7,1.2,6.4,3,8.1
			c1.7,1.7,4,2.6,6.9,2.6c1.4,0,2.6-0.2,3.6-0.5s1.9-0.7,2.7-1.1c0.8-0.4,1.4-0.8,2-1.1c0.6-0.3,1.1-0.5,1.7-0.5
			c0.4,0,0.7,0.1,0.9,0.2c0.3,0.1,0.5,0.3,0.7,0.6l2.5,3.1c-1,1.1-2,2.1-3.2,2.8c-1.2,0.8-2.4,1.4-3.7,1.8c-1.3,0.5-2.6,0.8-4,1
			c-1.3,0.2-2.6,0.3-3.9,0.3c-2.5,0-4.8-0.4-7-1.2s-4-2.1-5.6-3.7c-1.6-1.6-2.8-3.6-3.7-6c-0.9-2.4-1.4-5.2-1.4-8.3
			c0-2.4,0.4-4.8,1.2-6.9c0.8-2.2,1.9-4,3.4-5.6c1.5-1.6,3.3-2.9,5.4-3.8C545.4,203.9,547.9,203.5,550.5,203.4L550.5,203.4z
			 M550.7,209.6c-2.5,0-4.5,0.7-5.9,2.1c-1.4,1.4-2.3,3.4-2.7,6.1h16.2c0-1.1-0.2-2.2-0.5-3.2c-0.3-1-0.8-1.9-1.4-2.6
			c-0.6-0.7-1.4-1.3-2.4-1.8C553.1,209.9,552,209.6,550.7,209.6L550.7,209.6z"/>
		<path class="st2" d="M594.4,211c-0.2,0.4-0.5,0.6-0.7,0.8c-0.3,0.2-0.6,0.2-1,0.2c-0.4,0-0.9-0.1-1.3-0.4c-0.5-0.2-1-0.5-1.7-0.8
			c-0.6-0.3-1.3-0.6-2.2-0.8c-0.8-0.2-1.8-0.4-2.9-0.4c-1.7,0-3,0.4-4,1.1c-1,0.7-1.5,1.7-1.5,2.8c0,0.8,0.3,1.4,0.8,1.9
			c0.5,0.5,1.2,1,2,1.4c0.8,0.4,1.8,0.8,2.8,1.1c1.1,0.3,2.1,0.7,3.2,1c1.1,0.4,2.2,0.8,3.2,1.3c1.1,0.5,2,1.1,2.8,1.8
			c0.8,0.7,1.5,1.6,2,2.6c0.5,1,0.8,2.3,0.8,3.7c0,1.7-0.3,3.3-0.9,4.8c-0.6,1.5-1.5,2.7-2.8,3.8c-1.2,1.1-2.7,1.9-4.5,2.5
			c-1.8,0.6-3.8,0.9-6.1,0.9c-1.2,0-2.4-0.1-3.6-0.3c-1.2-0.2-2.3-0.5-3.4-0.9c-1.1-0.4-2.1-0.9-3-1.4c-0.9-0.5-1.7-1.1-2.4-1.8
			l2-3.3c0.3-0.4,0.6-0.7,0.9-0.9c0.4-0.2,0.8-0.3,1.3-0.3s1,0.2,1.5,0.5c0.5,0.3,1,0.6,1.7,1s1.4,0.7,2.2,1
			c0.9,0.3,1.9,0.5,3.2,0.5c1,0,1.9-0.1,2.6-0.4c0.7-0.2,1.3-0.6,1.8-1s0.8-0.9,1.1-1.4c0.2-0.5,0.3-1.1,0.3-1.6
			c0-0.8-0.3-1.5-0.8-2.1c-0.5-0.5-1.2-1-2-1.4c-0.8-0.4-1.8-0.8-2.8-1.1c-1.1-0.3-2.1-0.7-3.3-1c-1.1-0.4-2.2-0.8-3.3-1.3
			s-2-1.1-2.8-1.9c-0.8-0.8-1.5-1.7-2-2.8c-0.5-1.1-0.8-2.5-0.8-4.1c0-1.5,0.3-2.9,0.9-4.2c0.6-1.3,1.4-2.5,2.6-3.5
			c1.1-1,2.5-1.8,4.2-2.4c1.7-0.6,3.6-0.9,5.9-0.9c2.5,0,4.7,0.4,6.8,1.2c2,0.8,3.7,1.9,5.1,3.2L594.4,211L594.4,211z"/>
	</g>
	<g>
		<path class="st2" d="M98.4,263.4h16.5c-0.5-3.7-3.1-7.4-3.1-7.4s-31.9-21-53.5-10.2c3.1-6.4,7.4-12.2,7.4-12.2s-13,2.1-26.7,14.1
			c-13.7,12-26.5,11.4-26.5,11.4s33.2,2.9,40,1.6c6.7-1.4,16.2,4.2,16.2,4.2s-2.5-8.5-9.5-10.7C63.8,252.9,75.9,248.5,98.4,263.4
			L98.4,263.4z"/>
		<path class="st3" d="M98.4,263.4h7.8c-10.1-12.3-24.9-23.2-42.5-14.5c-22.2,11-33.9,9.8-39.4,7.7c-7,2.7-11.9,2.5-11.9,2.5
			s33.2,2.9,40,1.6c6.7-1.4,16.2,4.2,16.2,4.2s-2.5-8.5-9.5-10.7C63.8,252.9,75.9,248.5,98.4,263.4L98.4,263.4z"/>
		<polygon class="st4" points="105.4,258.2 102,261.8 111.7,261.8 111.3,258.5 		"/>
		<polygon class="st3" points="105.4,258.2 102,261.8 111.7,261.8 111.3,258.5 		"/>
		<polygon class="st2" points="178.7,174.5 173.2,179.8 177.2,196 188.8,194.9 186.6,178.2 		"/>
		<polygon class="st5" points="130.5,229 140,252.8 139.2,262 119.5,262.5 116.2,241.4 		"/>
		<path class="st4" d="M107.2,263.4H141c-0.3-2.1-0.4-3.4-0.4-3.4s-3.7-8.5-7.5-4.7c-3.8,3.8-9.9,1.3-9.9,1.3s-15.9-4.8-15.1,0
			C108.5,258.2,108,260.8,107.2,263.4L107.2,263.4z"/>
		<path class="st3" d="M107.2,263.4H141c-0.3-2.1-0.4-3.4-0.4-3.4s-3.7-8.5-7.5-4.7c-3.8,3.8-9.9,1.3-9.9,1.3s-15.9-4.8-15.1,0
			C108.5,258.2,108,260.8,107.2,263.4L107.2,263.4z"/>
		<path class="st4" d="M129.4,245.9c0,0,3.6,10.7,2.1,15.3c3.1-1.7,10.6-2.2,10.9-5.2c0.3-3-4.8-17.6-4.8-17.6l0.9-15.6
			c0,0,10.4-25,40.8-25c1.2-1.1-4.9-20-0.8-25.9c-8.3,1.8-20.8,5.7-20.8,5.7l-23.4,22.5l-4.9,9.2L129.4,245.9L129.4,245.9z"/>
		<path class="st3" d="M178.5,171.9c-8.3,1.8-20.8,5.7-20.8,5.7l-23.4,22.5l-4.9,9.2v36.6c0,0,1.5,4.5,2.2,8.9
			c4.4-2.8,8.8-0.7,10.8,0.7c-0.2-3.9-4.8-17.2-4.8-17.2l0.9-15.6c0,0,10.4-25,40.8-25C180.5,196.8,174.4,177.8,178.5,171.9
			L178.5,171.9z"/>
		<path class="st4" d="M133.1,213.9c1.8-3.4-1-7.3-1-7.3l-3.8-1.9l-12.2,0.7c0,0,1.6,3.1,3.9,6.1l-2.2,12.2c0,0,2.3,20.5,3.4,23.6
			c1.1,3.1,3.8,5,7.4,8.8c-0.1-2.6,2.4-9.9,2.4-9.9s3.4-12,4.1-19.5C135.7,221.3,134.1,216.3,133.1,213.9L133.1,213.9z"/>
		<path class="st3" d="M134.4,231.9c-0.5,0-0.8-0.1-0.8-0.1c-0.4-0.2-7.9-12.2-7.9-12.2s1.2-9.1,2.4-7.9c0.7,0.7,3.4-0.5,5.5-1.6
			c-0.4-1.9-1.4-3.4-1.4-3.4l-3.8-1.9l-12.2,0.7c0,0,1.6,3.1,3.9,6.1l-2.2,12.2c0,0,2.3,20.5,3.4,23.6c1.1,3.1,3.8,5,7.4,8.8
			c-0.1-2.6,2.4-9.9,2.4-9.9S133.2,238.7,134.4,231.9L134.4,231.9z"/>
		<path class="st4" d="M105.1,208.5c0,0-6.6,4-6.2,11.7c0.4,7.8,5.3,15.8,5.6,19.6c0.2,3.8,0.3,16.6-2.5,21.9c2.4-0.7,11-3,17.2-1.2
			s9.5,1.7,9.5,1.7s-18.6-41.2-9.3-59.7S105.1,208.5,105.1,208.5L105.1,208.5z"/>
		<path class="st3" d="M104.4,239.8c0.2,3.8,0.3,16.6-2.5,21.9c1.3-0.4,4.4-1.2,7.9-1.7c3.1-4.4,2.1-11.5,0.7-16.8
			c5.5,2.9,11.7,8.2,15,11.4c-4.8-12.8-13-38.6-6.3-52.1c9.2-18.5-14.3,5.9-14.3,5.9s-6.6,4-6.2,11.7
			C99.3,228,104.2,236.1,104.4,239.8L104.4,239.8z"/>
		<path d="M162.1,249.3c0,0,1.3,7.2-0.6,8.1c-1.9,0.9-9.2-10.3-9.2-10.3l9.8-12.6C162.1,234.5,163.7,246,162.1,249.3L162.1,249.3z"
			/>
		<path class="st6" d="M176.4,221.8c0,0,0.3-6.2,6.8-4.7c6.5,1.5,17.6,3.4,27.2,0s19-7.4,20.3,0c1.4,7.4-19.4,10-19.4,10
			L176.4,221.8L176.4,221.8z"/>
		<path class="st3" d="M229.9,215c-5.1,0.6-12.7,2.9-19.9,5c-8.7,2.5-13.3,1.1-14.7-1.1c-4.7-0.3-9-1.1-12.2-1.8
			c-6.5-1.5-6.8,4.7-6.8,4.7l34.9,5.3c0,0,20.8-2.6,19.4-10C230.5,216.3,230.3,215.6,229.9,215L229.9,215z"/>
		<path class="st7" d="M178.9,232.7l-9.4-1.4c0,0-5.2-2.9-4.6-7.1c0.6-4.2,2.6-6.3,9.2-5.7c6.6,0.6,12.6,2.7,17.3,3.4
			c4.7,0.6,18.4,1.3,28.5-2.4c10.2-3.6,15.3-4.8,17.8-2.4c2.5,2.4,4.2,5.4-3,10C227.5,231.8,178.9,232.7,178.9,232.7L178.9,232.7z"
			/>
		<path class="st3" d="M239.6,219.7c-1.3,4.7-6.6,3.1-6.6,3.1v-3.1l-8.1-1.8c-0.8,0.2-1.6,0.5-2.4,0.8l0.3,0.2l-2.2,3.2l-2.6-1
			l-3.2,1.5l4.1,2.1l-2.9,1.1l-5.2-1.6l2.3-0.9l-3.4-0.4l-4.5-0.6l-3.8,2.6l2.2-0.6c0,0,7.8,0.8,9,2.1c1.2,1.4-10.6,1.5-10.9,1.8
			c-0.3,0.3-3.5-2.4-3.5-2.4l1.5-0.4c-1.4-0.4-4.3-1.3-4.7-2.1c-0.6-1-2-1.2-8.8-1.4c-10-0.9-13.5-2.4-14.7-3.5
			c-4.5,0.1-6.1,2.2-6.6,5.8c-0.6,4.2,4.6,7.1,4.6,7.1l9.4,1.4c0,0,48.6-0.9,55.8-5.6C239.6,224,240.4,221.6,239.6,219.7
			L239.6,219.7z M221.9,224.3l0.6-4.7l5.7,1.1L221.9,224.3L221.9,224.3z"/>
		<path class="st8" d="M185.2,218c0,0-7.6,1.8-3.4,3.3c4.2,1.5,7.7-0.8,11.1,0.8c3.5,1.6,4.1,4,7.4,3.5c3.4-0.5,2.9-3.9,6.4-3.4
			c3.5,0.4,5,2.8,7.5,0.6c2.5-2.2,2.6-2.2,5.9-0.8c3.3,1.4,1-5.3,5.7-4.3c4.7,1,7.4,3.3,8.9,1.3c1.5-2,0-2.3,0-2.3"/>
		<path class="st6" d="M173,230.6c0,0-1.5-10.1,10.4-6.1c11.8,4,30,2.2,41.4-3.5c11.4-5.7,12.1,6.1,10.8,9.5
			c-1.3,3.5-4.5,13.1-21.8,16.2c-17.3,3-22.1,3.4-28.1,0.5s-16.3-7.3-16.3-7.3L173,230.6L173,230.6z"/>
		<path class="st3" d="M225,237c-18.9,5.6-40.8,9.4-44.1,2.6c-2.5-5.3-1-12.2,3-14.9c-0.2-0.1-0.4-0.1-0.5-0.2
			c-11.8-4-10.4,6.1-10.4,6.1l-3.6,9.3c0,0,10.3,4.4,16.3,7.3c6,2.9,10.8,2.5,28.1-0.5c17.3-3,20.6-12.7,21.8-16.2c0,0,0-0.1,0-0.1
			C233.4,233.2,230,235.6,225,237L225,237z"/>
		<path class="st2" d="M156.8,234.5c0,0,7,5.6,9.4,0.7s3.4-10.8,8.1-9.1s2.5,2.6,1.3,5.4c-1.3,2.8-4.3,5-2.2,8.2s15.8,9.6,18.6,9.3
			c-0.3,2.4-2.6,6.7-5.8,5.7l-3.1-1.1c0,0-1.5,3.4-6.4,1.2c-1.8,1.5-2.4,3.2-6.6,1.2c-4.2-2-5.2-4-6.3-4c-1.1,0-10.7,0.1-11.7-1.8
			S156.8,234.5,156.8,234.5L156.8,234.5z"/>
		<path class="st3" d="M175.1,247.6c3.1,3,10.5,5.1,14.5,6.1c1.2-1.3,2.1-3.2,2.2-4.6c-2.7,0.3-16.5-6.1-18.6-9.3
			c-2.1-3.3,0.9-5.5,2.2-8.2c1.3-2.8,3.5-3.7-1.3-5.4s-5.7,4.3-8.1,9.1c-2.4,4.8-9.4-0.7-9.4-0.7s-5.7,13.8-4.7,15.7
			c0.9,1.9,10.6,1.8,11.7,1.8c0.3,0,0.7,0.2,1.1,0.6C164.6,246.8,171.3,244,175.1,247.6L175.1,247.6z"/>
		<path class="st4" d="M108.5,202.7c0,0-22.7,6.5,1.2,26.3s41.4,30.8,47.7,29.7c6.3-1.1,3.7-1.7,3.1-3c-0.5-1.4-4.7-8.8,1.6-21.2
			c-6.6-3.5-34.9-19.5-37.2-22.4C122.7,209.1,117.9,200.7,108.5,202.7L108.5,202.7z"/>
		<g>
			<path class="st2" d="M167.6,166.9c6.7-19.2,2.3-32.8-3-48.9s-20.9-28.3-24.8-30.6c13.5,19.6,6.9,37.6,6.2,39.3
				c-9.3-9.2-6.8-16.5-5.8-18.8c-1,0-3.9,2.5-6,6.1c0.4-7.4,4.2-15.6,6-19.3c-8.9,0.8-18.6,15.8-20.2,18.4c0-1.9,0.8-6.7,1.7-8.4
				c-4.2,0.3-10.6,12-13.4,16.1c-2.7,4.2-4.9,5-6.2,5.9c-13.3-17.1,2.7-37.4,2.7-37.4c-33,20-23.2,55.8-23.2,55.8s0,0,0.1,0
				c-1,3.4-1.7,6.9-2,10.5c-2.3,26.3,16,49.3,40.7,51.5c23.8,2.1,43.6-13.9,47.3-38.6L167.6,166.9L167.6,166.9z"/>
			<path class="st3" d="M167.3,169.9l-15.3-3.7l-17.5-2.3c0,0-6.1-2.8-13.6-11.2c-5.9-6.7-1.9-19.4,12.4-24.2
				c-2.5-8,6.7-20.7,6.7-20.7c-1,0-3.9,2.5-6,6.1c0.4-7.4,4.2-15.6,6-19.3c-8.9,0.8-18.6,15.8-20.2,18.4c0-1.9,0.8-6.7,1.7-8.4
				c-4.2,0.3-10.6,12-13.4,16.1c-2.7,4.2-4.9,5-6.2,5.9c-13.3-17.1,2.7-37.4,2.7-37.4c-33,20-23.2,55.8-23.2,55.8s0,0,0.1,0
				c-1,3.4-1.7,6.9-2,10.5c-0.5,5.6,0,11,1.2,16.2c0,0,0,0,0,0c0.1,0.3,0.2,0.6,0.2,0.9c0,0,0,0,0,0c0.5,1.9,1.1,3.7,1.8,5.5
				c0,0,0,0,0,0.1c0.1,0.3,0.2,0.6,0.3,0.8c0,0,0,0.1,0,0.1c0.1,0.3,0.2,0.6,0.4,0.8l0,0c0.5,1.2,1.1,2.3,1.7,3.4c0,0,0,0,0,0
				c0.1,0.3,0.3,0.5,0.4,0.8c0,0,0,0.1,0.1,0.1c0.1,0.2,0.3,0.5,0.4,0.7c0,0,0.1,0.1,0.1,0.1c0.1,0.2,0.3,0.5,0.4,0.7c0,0,0,0,0,0.1
				c0.6,1,1.3,2,2,3c0,0.1,0.1,0.1,0.1,0.2c0.1,0.2,0.3,0.4,0.5,0.6c0.1,0.1,0.1,0.1,0.2,0.2c0.1,0.2,0.3,0.4,0.4,0.6
				c0.1,0.1,0.1,0.1,0.2,0.2c0.2,0.2,0.3,0.4,0.5,0.6c0,0.1,0.1,0.1,0.1,0.2c0.5,0.6,1.1,1.3,1.7,1.9c0,0,0.1,0.1,0.1,0.1
				c0.2,0.2,0.3,0.3,0.5,0.5c0.1,0.1,0.2,0.2,0.2,0.2c0.1,0.1,0.3,0.3,0.5,0.4c0.1,0.1,0.2,0.2,0.3,0.3c0.1,0.1,0.3,0.3,0.4,0.4
				c0.1,0.1,0.2,0.2,0.3,0.3c0.2,0.1,0.3,0.3,0.5,0.4c0.1,0.1,0.2,0.2,0.3,0.3c0.5,0.5,1.1,0.9,1.6,1.4c0.1,0.1,0.2,0.2,0.4,0.3
				c0.1,0.1,0.3,0.2,0.4,0.3c0.1,0.1,0.3,0.2,0.4,0.3c0.1,0.1,0.3,0.2,0.4,0.3c0.1,0.1,0.3,0.2,0.4,0.3c0.1,0.1,0.3,0.2,0.4,0.3
				c0.1,0.1,0.3,0.2,0.4,0.3c0.1,0.1,0.3,0.2,0.4,0.3c0.2,0.1,0.3,0.2,0.5,0.3c0.1,0.1,0.3,0.2,0.4,0.2c0.3,0.2,0.6,0.3,0.8,0.5
				c0.1,0.1,0.2,0.1,0.4,0.2c0.2,0.1,0.4,0.2,0.5,0.3c0.1,0.1,0.3,0.1,0.4,0.2c0.2,0.1,0.3,0.2,0.5,0.3c0.1,0.1,0.3,0.1,0.4,0.2
				c0.2,0.1,0.3,0.2,0.5,0.3c0.1,0.1,0.3,0.1,0.4,0.2c0.2,0.1,0.4,0.2,0.6,0.3c0.1,0.1,0.3,0.1,0.4,0.2c0.2,0.1,0.4,0.2,0.7,0.3
				c0.1,0,0.2,0.1,0.3,0.1c0.3,0.1,0.6,0.3,0.9,0.4c0.1,0,0.2,0.1,0.3,0.1c0.2,0.1,0.4,0.2,0.6,0.2c0.1,0,0.3,0.1,0.4,0.1
				c0.2,0.1,0.4,0.1,0.6,0.2c0.1,0,0.3,0.1,0.4,0.1c0.2,0.1,0.4,0.1,0.6,0.2c0.1,0,0.3,0.1,0.4,0.1c0.2,0.1,0.4,0.1,0.7,0.2
				c0.1,0,0.2,0.1,0.4,0.1c0.3,0.1,0.6,0.2,0.9,0.2c0,0,0.1,0,0.1,0c0.3,0.1,0.7,0.2,1,0.2c0.1,0,0.2,0,0.3,0.1
				c0.2,0,0.5,0.1,0.7,0.1c0.1,0,0.3,0,0.4,0.1c0.2,0,0.4,0.1,0.7,0.1c0.1,0,0.3,0,0.4,0.1c0.2,0,0.4,0.1,0.7,0.1
				c0.1,0,0.3,0,0.4,0.1c0.2,0,0.5,0.1,0.7,0.1c0.1,0,0.2,0,0.4,0c0.4,0,0.7,0.1,1.1,0.1c0,0,0,0,0,0c0.3,0,0.6,0,1,0.1
				c19.2,1.3,35.6-9.2,42.9-26.4h0C165.5,177.4,166.6,173.7,167.3,169.9L167.3,169.9z"/>
			<path class="st3" d="M139.7,87.4c13.5,19.6,6.9,37.6,6.2,39.3C170,126.7,139.7,87.4,139.7,87.4L139.7,87.4z"/>
			<path d="M134.1,167.9c0,0,1.7-2.4,5.7-1.6c-0.1,3.1-0.8,10.4,1.6,13.3c2.4,2.8,3.6,4.1,6,5.5c2.5,1.3,9.9,5.1,15.9,3.2
				c6-1.8,7.5-2.8,8.9-6.9c1.5-4.1,4.8-15.4,1.7-20.8c-3.1-5.4-4-5.1-9.1-5.8c-5.1-0.8-15.2-2.1-23.2,6.2c-1.7-0.3-2.5-0.6-6.9,0.4
				c-0.2-1.2,0-4.4-6.6-6.8c-6.7-2.4-19.8-4.6-26-2.4c-6.3,2.2-7.4,2.3-8.7,7.5c-1.3,5.2-2.3,14.6,0.8,20.7c3,6.1,7.1,7.6,10.3,8.3
				c3.2,0.7,11.9,2,18.4,0c6.5-2,9.6-2.9,10.3-8.5C133.7,174.4,134.1,167.9,134.1,167.9L134.1,167.9z"/>
			<path class="st5" d="M100.9,158.5c3.7-1.6,13.3-4.3,25.7,3.3c0.5,0.3,0.9,0.6,1.2,1.1c0.9,1.2,1.8,3.7,1.4,8.2
				c-0.5,6-2.1,10.1-3.5,11.2c-1.4,1.1-3.6,3.8-16.7,2.3c-4.5-0.6-7-2.3-8.4-4.8c-1.3-2.3-4.9-10-2-18.7
				C98.9,159.9,99.8,158.9,100.9,158.5L100.9,158.5z"/>
			<path class="st3" d="M115,180.5c-4.5-0.6-7-2.3-8.4-4.8c-1.3-2.3-4.8-9.9-2.1-18.5c-1.5,0.4-2.8,0.8-3.7,1.2
				c-1.1,0.5-1.9,1.4-2.3,2.6c-2.9,8.7,0.7,16.4,2,18.7c1.4,2.5,3.9,4.2,8.4,4.8c13.1,1.6,15.4-1.2,16.7-2.3
				c0.4-0.3,0.8-0.9,1.2-1.6C124.4,181.1,120.8,181.2,115,180.5L115,180.5z"/>
			<path class="st5" d="M145.6,164.5c0.2-0.4,0.5-0.8,0.9-1c1.9-1.1,8.3-4.5,12.5-4.7c4.7-0.2,9.3,0.8,10.2,2.5
				c1,1.8,0.7,15.2-0.3,17.5c-1,2.3-1,2.9-3.2,3.9c-2.2,1-4.6,2.2-9.5,1c-4.9-1.1-10-4.5-10.6-5.7c-0.6-1.2-1-1.6-1-3.2
				C144.7,173.3,144.6,167.3,145.6,164.5L145.6,164.5z"/>
			<path class="st3" d="M161.3,180.8c-4.9-1.2-10-4.5-10.6-5.7c-0.6-1.2-1-1.6-1-3.2c0-1.5-0.1-7.5,0.9-10.3c0-0.1,0.1-0.2,0.1-0.3
				c-1.9,0.9-3.4,1.7-4.2,2.2c-0.4,0.2-0.7,0.6-0.9,1c-1,2.8-0.9,8.8-0.9,10.3c0,1.6,0.4,2,1,3.2c0.6,1.2,5.7,4.6,10.6,5.7
				s7.3,0,9.5-1c1.3-0.6,1.9-1.1,2.3-1.9C166.4,181.3,164.4,181.5,161.3,180.8L161.3,180.8z"/>
		</g>
		<path class="st2" d="M181.8,166.8c0,0-4.6-0.4-5.3,0.6c-0.7,1.1-4.6,5.1-2.8,7.8c1.8,2.6,4.2,5.9,8.2,5.5s5.6-8.3,5.6-8.3
			L181.8,166.8L181.8,166.8z"/>
		<path class="st3" d="M181.8,166.8c0,0-4.6-0.4-5.3,0.6c-0.7,1.1-4.6,5.1-2.8,7.8c1.8,2.6,4.2,5.9,8.2,5.5s5.6-8.3,5.6-8.3
			L181.8,166.8L181.8,166.8z"/>
		<path class="st9" d="M176.4,187.7c0,0,10.8-14.1,15.9-57.8c1.5-2.5,23-0.6,29.6,8c-1.9,7.1-12.3,39-12.3,44.6
			c0,5.6-1.6,12.1-2.5,13.7C205.9,197,184.5,199.1,176.4,187.7L176.4,187.7z"/>
		<path class="st3" d="M208.4,179.8c-3.3-0.6-6,7.7-5.6,11.9c-2.8-3.9-8.9-3.8-14.7-4.5c2.4-0.7,11-26,14.7-42.3
			c2.1-9-0.6-13.6-3.3-15.9c-3.8-0.3-6.6,0.1-7.1,0.9c-5.1,43.7-15.9,57.8-15.9,57.8c8.1,11.3,29.5,9.2,30.7,8.5
			c0.9-1.7,2.5-8.2,2.5-13.7c0-0.6,0.1-1.4,0.3-2.4C209.3,180,208.8,179.9,208.4,179.8L208.4,179.8z"/>
		<path class="st9" d="M181.4,190.4l-1.4,6.1c0,0,7.6,6.9,19.2,5.4l1.9-6.1C201,195.8,193.8,188.4,181.4,190.4L181.4,190.4z"/>
		<path class="st3" d="M189.4,195.2l2-4.4c-2.8-0.7-6.2-1-10-0.4l-1.4,6.1c0,0,7.6,6.9,19.2,5.4C196.1,196,189.4,195.2,189.4,195.2
			L189.4,195.2z"/>
		<path class="st9" d="M185.3,198.6c0,0,5.2-1.7,7.7,2.5c-1.9,5.2-6.4,17.6-6.4,17.6s-2.4,0.5-3.4-1.1
			C183.5,216.3,185.3,198.6,185.3,198.6L185.3,198.6z"/>
		<path class="st3" d="M184.4,218.2c1.5-3.9,3.6-15.7,4.4-19.9c-1.9-0.3-3.5,0.3-3.5,0.3s-1.8,17.6-2.1,19.1
			c0.3,0.5,0.7,0.7,1.1,0.9C184.3,218.5,184.4,218.4,184.4,218.2z"/>
		<path class="st2" d="M216,180.8c0,0-5.3-2.8-8.4-0.5c-3,2.3-3.1,10.2,0.8,12S222.7,186.3,216,180.8z"/>
		<path class="st3" d="M208,182.8c0-1.1,0.4-2.2,1-3.2c-0.5,0.1-0.9,0.4-1.3,0.7c-3,2.3-3.1,10.2,0.8,12c1.8,0.9,5.1-0.4,7.4-2.6
			C211.4,189.3,208,186.3,208,182.8L208,182.8z"/>
		<path class="st2" d="M179.2,174.9c0,0,7.6,3.7,8.9,0c1.3-3.7,2.6-6.8,0-8c1-2.5,4.5-8.3-0.8-8c1.8-4.3,7.3-11-2.6-9.2
			c-3,1.8-3,8.5-3,8.5s-2.5-0.1-3.1,8.5C178.2,169.1,179.2,174.9,179.2,174.9L179.2,174.9z"/>
		<path class="st3" d="M179.2,174.9c0,0,7.6,3.7,8.9,0c1.3-3.7,2.6-6.8,0-8c1-2.5,4.5-8.3-0.8-8c1.8-4.3,7.3-11-2.6-9.2
			c-3,1.8-3,8.5-3,8.5s-2.5-0.1-3.1,8.5C178.2,169.1,179.2,174.9,179.2,174.9L179.2,174.9z"/>
	</g>
	<path class="st4" d="M557.6,170.5H256.5v4.1h301.1c29.7,0,53.9,19.6,53.9,43.6s-24.2,43.6-53.9,43.6h-471c-2.2,0-4.3-0.7-5.9-1.7
		h-6.5c2.5,3.5,7.1,5.9,12.4,5.9h471c32.6,0,59-21.4,59-47.7S590.2,170.5,557.6,170.5z"/>
</g>
</svg>
